<svg width="76" height="72" viewBox="0 0 76 72" fill="none" xmlns="http://www.w3.org/2000/svg">
<path d="M68.8213 25.2929C62.0368 25.2929 59.2631 20.431 62.6366 14.4676C64.5857 11.0111 63.4237 6.60498 60.0127 4.62983L53.5282 0.869451C50.567 -0.915781 46.7437 0.147762 44.982 3.14847L44.5697 3.87016C41.1962 9.83359 35.6488 9.83359 32.2378 3.87016L31.8255 3.14847C30.1387 0.147762 26.3155 -0.915781 23.3543 0.869451L16.8697 4.62983C13.4588 6.60498 12.2968 11.0491 14.2459 14.5056C17.6569 20.431 14.8831 25.2929 8.09871 25.2929C4.20047 25.2929 0.976929 28.5216 0.976929 32.5098V39.195C0.976929 43.1453 4.16299 46.4119 8.09871 46.4119C14.8831 46.4119 17.6569 51.2738 14.2459 57.2372C12.2968 60.6937 13.4588 65.0998 16.8697 67.075L23.3543 70.8354C26.3155 72.6206 30.1387 71.557 31.9004 68.5563L32.3128 67.8346C35.6862 61.8712 41.2337 61.8712 44.6447 67.8346L45.057 68.5563C46.8187 71.557 50.642 72.6206 53.6031 70.8354L60.0877 67.075C63.4987 65.0998 64.6606 60.6557 62.7115 57.2372C59.3006 51.2738 62.0743 46.4119 68.8587 46.4119C72.757 46.4119 75.9805 43.1832 75.9805 39.195V32.5098C75.943 28.5595 72.757 25.2929 68.8213 25.2929ZM38.46 48.1971C31.7505 48.1971 26.278 42.6515 26.278 35.8524C26.278 29.0533 31.7505 23.5077 38.46 23.5077C45.1694 23.5077 50.642 29.0533 50.642 35.8524C50.642 42.6515 45.1694 48.1971 38.46 48.1971Z" fill="#FFC830"/>
</svg>
