<svg width="27" height="24" viewBox="0 0 27 24" fill="none" xmlns="http://www.w3.org/2000/svg">
<path d="M23.9617 2.4046L21.6102 4.50709M21.6102 4.50709L25.1374 7.66083L21.0223 11.3402L17.4951 8.18645M21.6102 4.50709L17.4951 8.18645M12.6629 12.5071C13.2699 13.0426 13.7525 13.6803 14.0829 14.3833C14.4132 15.0863 14.5847 15.8408 14.5876 16.6034C14.5904 17.3659 14.4246 18.1214 14.0995 18.8264C13.7745 19.5314 13.2967 20.1719 12.6936 20.7111C12.0905 21.2503 11.3742 21.6776 10.5857 21.9682C9.79722 22.2588 8.95224 22.4071 8.0994 22.4046C7.24656 22.402 6.40271 22.2486 5.61643 21.9533C4.83016 21.658 4.11699 21.2265 3.51799 20.6837C2.34006 19.5932 1.68827 18.1327 1.703 16.6167C1.71774 15.1007 2.39782 13.6506 3.59677 12.5786C4.79571 11.5065 6.4176 10.8985 8.11311 10.8853C9.80862 10.8721 11.4421 11.4549 12.6617 12.5081L12.6629 12.5071ZM12.6629 12.5071L17.4951 8.18645" stroke="black" stroke-width="3" stroke-linecap="round" stroke-linejoin="round"/>
</svg>
